:SAMPLES-PER-SECOND 24
:FULLY-SPECIFIED
:DEGREES
393
root  -2.50894 40.8124 -36.733 107.376 -33.4562 -95.8571
RightUpLeg  -17.1191 -11.9856 -39.355
RightLeg  1.70719 -14.3687 -10.7447
RightFoot  -18.2899 0.0594908 3.06883
RightToes  -2.09809e-008 3.77894e-005 6.81332e-007
Spine  -1.64311 4.05167 4.40298
Spine1  6.20598 -2.44255 27.6499
HEad  -16.5323 -30.0819 26.4413
LeftShoulder1  3.72394 -8.64877 -24.4557
LeftArm  8.46944 36.7753 -18.8286
LeftForeArm  171.498 -67.0038 -157.176
LeftHand  -0.327647 -2.25962 5.17105
RightShoulder  2.32889 4.19992 24.1199
RightArm  6.55624 -20.5975 14.3063
RightForeArm  162.729 68.0802 154.904
RightHand  -0.24735 9.55965 -2.31486
LeftUpLeg  -16.2897 -0.370545 51.0762
LeftLeg  22.1833 31.7136 13.5418
LeftFoot  -11.3075 0.0577964 10.1317
LeftToes  1.24773e-006 1.46318e-008 1.32523e-009
394
root  -2.45252 40.4855 -36.9968 108.723 -34.0243 -97.1166
RightUpLeg  -22.476 -0.564084 -44.5588
RightLeg  15.0599 -31.7599 -11.1819
RightFoot  -18.804 -0.0799192 0.736743
RightToes  -2.09809e-008 3.77894e-005 6.81332e-007
Spine  -1.64445 4.42555 5.52334
Spine1  6.51095 -1.67326 26.0494
HEad  -18.114 -29.7644 26.8603
LeftShoulder1  3.82562 -8.73477 -25.1058
LeftArm  3.3069 43.8847 -22.3272
LeftForeArm  172.868 -67.5627 -156.731
LeftHand  -0.282822 -2.62795 4.31619
RightShoulder  2.28746 4.15143 23.7519
RightArm  4.9963 -15.9169 15.9054
RightForeArm  161.65 68.8888 153.77
RightHand  -0.15727 9.60247 -1.61698
LeftUpLeg  -17.9681 0.168431 50.5239
LeftLeg  26.1264 30.9123 15.6023
LeftFoot  -10.2952 -0.0525038 12.675
LeftToes  1.24773e-006 1.46318e-008 1.32523e-009
395
root  -2.2337 40.3342 -37.2478 105.391 -35.7562 -94.7149
RightUpLeg  -24.7737 -5.97298 -41.6046
RightLeg  28.8971 -29.5548 -16.5871
RightFoot  -20.3157 -0.164103 -0.339518
RightToes  -2.09809e-008 3.77894e-005 6.81332e-007
Spine  0.565137 3.70461 3.38086
Spine1  7.31201 -3.24039 28.2366
HEad  -20.8796 -29.3528 27.8396
LeftShoulder1  4.35628 -9.60714 -27.144
LeftArm  -2.25569 44.8611 -27.6595
LeftForeArm  171.847 -69.1372 -154.758
LeftHand  -0.243523 -2.65698 3.73178
RightShoulder  2.34316 4.29773 23.9126
RightArm  2.39181 -12.7713 18.1806
RightForeArm  160.95 68.7486 153.859
RightHand  -0.178543 9.66081 -1.77609
LeftUpLeg  -19.6265 1.03545 49.4418
LeftLeg  26.914 27.4805 14.5636
LeftFoot  -10.6971 0.00473384 10.5926
LeftToes  1.24773e-006 1.46318e-008 1.32523e-009
396
root  -2.10441 40.3448 -37.2976 99.16 -37.7419 -90.044
RightUpLeg  -25.3151 -10.356 -37.5376
RightLeg  42.0439 -21.2208 -19.4734
RightFoot  -22.4898 -0.111938 0.412692
RightToes  -2.09809e-008 3.77894e-005 6.81332e-007
Spine  4.23105 2.97155 1.44127
Spine1  7.03212 -4.86653 31.6358
HEad  -22.6046 -31.3658 28.8479
LeftShoulder1  5.01336 -10.6437 -29.4147
LeftArm  -3.46662 39.6353 -31.4651
LeftForeArm  169.717 -71.3262 -151.392
LeftHand  -0.272848 -2.4137 4.26628
RightShoulder  2.45315 4.40116 24.9647
RightArm  0.545277 -13.78 19.9033
RightForeArm  162.01 67.8348 155.108
RightHand  -0.227302 9.5695 -2.15997
LeftUpLeg  -20.6729 0.766241 47.6422
LeftLeg  25.8717 23.6044 12.2379
LeftFoot  -10.879 0.0295498 8.94114
LeftToes  1.24773e-006 1.46318e-008 1.32523e-009
397
root  -2.2318 40.3964 -37.5624 94.4826 -39.3819 -86.1114
RightUpLeg  -28.161 -13.0054 -31.9591
RightLeg  55.5053 -13.7881 -20.8678
RightFoot  -23.4242 0.0602349 2.0678
RightToes  -2.09809e-008 3.77894e-005 6.81332e-007
Spine  5.39983 2.59624 0.728567
Spine1  7.04743 -5.65966 33.2123
HEad  -23.3717 -36.2017 29.0574
LeftShoulder1  5.42016 -11.2336 -30.775
LeftArm  -0.135562 31.1302 -33.9594
LeftForeArm  168.426 -73.8763 -146.58
LeftHand  -0.292823 -2.41869 4.56246
RightShoulder  2.54584 4.4586 25.9483
RightArm  0.168284 -17.9882 21.432
RightForeArm  163.569 66.9117 156.337
RightHand  -0.194936 9.7093 -1.89844
LeftUpLeg  -21.1411 -1.52522 46.2905
LeftLeg  25.1031 22.418 11.3275
LeftFoot  -10.7319 0.0162946 9.06483
LeftToes  1.24773e-006 1.46318e-008 1.32523e-009
398
root  -2.52837 40.4757 -37.9159 92.361 -41.3056 -83.4487
RightUpLeg  -32.9116 -15.4422 -24.2054
RightLeg  65.6591 -8.95343 -21.2541
RightFoot  -23.8131 0.258779 3.84292
RightToes  -2.09809e-008 3.77894e-005 6.81332e-007
Spine  4.19739 2.10308 -0.680553
Spine1  7.40678 -6.49834 34.0463
HEad  -23.8028 -41.702 28.4125
LeftShoulder1  5.48641 -11.2916 -31.0797
LeftArm  4.2385 23.7166 -36.3571
LeftForeArm  168.87 -75.1842 -143.706
LeftHand  -0.276428 -2.55562 4.25385
RightShoulder  2.7074 4.71041 26.9722
RightArm  1.48092 -22.0126 22.5005
RightForeArm  164.516 66.6028 156.777
RightHand  -0.140733 10.0945 -1.46178
LeftUpLeg  -21.5956 -3.87228 44.8234
LeftLeg  24.418 23.0801 11.2999
LeftFoot  -10.6808 0.0141863 8.66628
LeftToes  1.24773e-006 1.46318e-008 1.32523e-009
399
root  -2.83965 40.6283 -38.2488 90.2583 -44.0223 -80.8468
RightUpLeg  -37.295 -18.1614 -15.0481
RightLeg  71.1246 -6.15719 -20.214
RightFoot  -23.3305 0.31336 4.48926
RightToes  -2.09809e-008 3.77894e-005 6.81332e-007
Spine  3.4871 1.29929 -4.11952
Spine1  7.7404 -7.93403 35.9715
HEad  -24.7927 -45.4379 27.6
LeftShoulder1  5.49435 -11.2549 -31.2268
LeftArm  7.36266 18.326 -38.071
LeftForeArm  169.603 -74.8903 -144.539
LeftHand  -0.272361 -2.70772 4.12633
RightShoulder  2.82884 4.92783 27.5844
RightArm  3.55314 -24.2717 23.8437
RightForeArm  165.129 66.9886 156.436
RightHand  -0.132933 10.3313 -1.39127
LeftUpLeg  -21.4286 -4.39815 42.2071
LeftLeg  22.5139 22.5006 10.1821
LeftFoot  -10.2594 -0.0154259 8.16166
LeftToes  1.24773e-006 1.46318e-008 1.32523e-009
400
root  -3.15062 40.7568 -38.7219 87.0519 -47.2601 -77.7392
RightUpLeg  -39.5769 -20.8613 -5.80318
RightLeg  70.9572 -5.49052 -18.1095
RightFoot  -22.6016 0.52809 6.87405
RightToes  -2.09809e-008 3.77894e-005 6.81332e-007
Spine  4.56725 0.249259 -7.94154
Spine1  7.48249 -9.28972 36.8515
HEad  -26.3891 -47.0465 27.1551
LeftShoulder1  5.47115 -11.2443 -31.0953
LeftArm  9.33419 14.5508 -39.2276
LeftForeArm  168.759 -74.4694 -145.369
LeftHand  -0.277669 -2.71926 4.19748
RightShoulder  2.93439 5.11987 28.0759
RightArm  5.31753 -25.9503 25.4756
RightForeArm  165.278 67.4184 155.982
RightHand  -0.114339 10.3981 -1.2518
LeftUpLeg  -20.6411 -4.51827 38.9604
LeftLeg  20.3512 20.9919 8.66524
LeftFoot  -9.87342 -0.0414379 7.8635
LeftToes  1.24773e-006 1.46318e-008 1.32523e-009
401
root  -3.55354 40.8144 -39.1951 83.8699 -50.3402 -74.2706
RightUpLeg  -39.8581 -22.541 2.49078
RightLeg  64.4338 -4.95665 -11.8745
RightFoot  -20.6478 0.897246 12.7288
RightToes  -2.09809e-008 3.77894e-005 6.81332e-007
Spine  4.96495 -0.840541 -11.1916
Spine1  7.36137 -10.5864 37.0998
HEad  -28.187 -48.0471 26.6946
LeftShoulder1  5.55516 -11.4372 -31.1783
LeftArm  10.9333 12.2097 -39.8113
LeftForeArm  166.967 -74.7001 -144.531
LeftHand  -0.279261 -2.57345 4.28737
RightShoulder  3.04028 5.30225 28.5859
RightArm  6.30534 -27.7455 26.5484
RightForeArm  165.152 67.5364 155.834
RightHand  -0.0459543 10.617 -0.749873
LeftUpLeg  -20.1932 -5.32196 35.9036
LeftLeg  18.9529 20.2992 7.85629
LeftFoot  -10.002 -0.021323 6.95471
LeftToes  1.24773e-006 1.46318e-008 1.32523e-009
